<?xml version="1.0"?>
<svg xmlns="http://www.w3.org/2000/svg" viewBox="0 0 24 24" width="96px" height="96px">
    <path d="M 18.005859 2 C 17.749859 2.058 17.509531 2.111875 17.269531 2.171875 C 17.242531 2.178875 17.202172 2.2181406 17.201172 2.2441406 C 17.196172 2.4991406 17.199219 2.7542969 17.199219 3.0292969 C 17.466219 2.9722969 17.710078 2.9211875 17.955078 2.8671875 C 17.975078 2.8611875 18.002906 2.8314531 18.003906 2.8144531 C 18.006906 2.5444531 18.005859 2.276 18.005859 2 z M 16.998047 2.2324219 C 16.817047 2.2694219 16.643703 2.3047969 16.470703 2.3417969 C 16.194703 2.3997969 16.193359 2.4004531 16.193359 2.6894531 L 16.193359 3.2226562 L 16.193359 3.2246094 C 16.473359 3.1706094 16.735047 3.1203125 16.998047 3.0703125 L 16.998047 2.2324219 z M 16 2.4375 C 15.735 2.4845 15.484375 2.5291719 15.234375 2.5761719 C 15.218375 2.5801719 15.196313 2.6157187 15.195312 2.6367188 C 15.192312 2.8837187 15.193359 3.129625 15.193359 3.390625 C 15.449359 3.348625 15.686875 3.3115312 15.921875 3.2695312 C 15.933875 3.2675312 15.947938 3.259 15.960938 3.25 C 15.980937 3.236 15.996094 3.2190781 15.996094 3.2050781 C 16.001094 2.9540781 16 2.7025 16 2.4375 z M 13.976562 2.7753906 C 13.703563 2.8113906 13.437781 2.8478125 13.175781 2.8828125 L 13.175781 3.6640625 C 13.448781 3.6310625 13.712562 3.6003594 13.976562 3.5683594 L 13.976562 2.7753906 z M 18.996094 2.8242188 C 18.746094 2.8812187 18.503766 2.9351406 18.259766 2.9941406 C 18.240766 2.9991406 18.210938 3.0269219 18.210938 3.0449219 C 18.207937 3.2839219 18.208984 3.5225312 18.208984 3.7695312 C 18.479984 3.7115313 18.736094 3.6575625 18.996094 3.6015625 L 18.996094 2.8242188 z M 12.972656 2.9082031 C 12.688656 2.9392031 12.42225 2.9670937 12.15625 2.9960938 L 12.15625 3.7695312 C 12.41625 3.7445313 12.667922 3.7203594 12.919922 3.6933594 C 12.938922 3.6913594 12.970703 3.6605781 12.970703 3.6425781 C 12.973703 3.4005781 12.972656 3.1592031 12.972656 2.9082031 z M 11.943359 3.0175781 C 11.667359 3.0415781 11.404625 3.0648906 11.140625 3.0878906 L 11.140625 3.8496094 C 11.412625 3.8286094 11.675359 3.8100625 11.943359 3.7890625 L 11.943359 3.0175781 z M 10.927734 3.1035156 C 10.657734 3.1195156 10.394094 3.1324375 10.121094 3.1484375 L 10.121094 3.9121094 C 10.397094 3.8961094 10.663734 3.8792813 10.927734 3.8632812 L 10.927734 3.1035156 z M 7.0585938 3.2011719 L 7.0585938 3.9472656 L 7.8613281 3.9472656 L 7.8613281 3.2011719 L 7.0585938 3.2011719 z M 8.0859375 3.203125 L 8.0859375 3.9492188 L 8.8867188 3.9492188 L 8.8867188 3.203125 L 8.0859375 3.203125 z M 16.998047 3.2597656 C 16.749047 3.3057656 16.505672 3.3484844 16.263672 3.3964844 C 16.237672 3.4014844 16.197266 3.4350781 16.197266 3.4550781 C 16.192266 3.6780781 16.192359 3.9007187 16.193359 4.1367188 C 16.471359 4.0887188 16.733047 4.045 16.998047 4 L 16.998047 3.2597656 z M 15.994141 3.453125 C 15.051141 3.587125 14.111063 3.7195156 13.164062 3.8535156 L 13.164062 5.5859375 C 12.572062 5.6129375 11.987531 5.6409688 11.394531 5.6679688 L 11.394531 4.9765625 C 11.649531 4.9615625 11.897531 4.9475938 12.144531 4.9335938 L 12.144531 3.9570312 C 11.123531 4.0140313 10.11475 4.0719062 9.09375 4.1289062 L 9.09375 5.7929688 L 7.0585938 5.7929688 L 7.0585938 6.6445312 L 7.8496094 6.6445312 L 7.8496094 7.3027344 L 7.0605469 7.3027344 L 7.0605469 8.1425781 L 8.078125 8.1425781 L 8.078125 10.837891 L 8.8574219 10.837891 L 8.8574219 11.488281 L 8.0820312 11.488281 L 8.0820312 12.513672 L 8.8613281 12.513672 L 8.8613281 13.166016 L 8.0722656 13.166016 L 8.0722656 15.855469 L 7.0625 15.855469 L 7.0625 17.550781 L 7.8476562 17.550781 L 7.8476562 18.201172 L 9.1035156 18.201172 L 9.1035156 19.873047 C 9.7935156 19.904047 10.468156 19.936797 11.160156 19.966797 L 11.160156 19.322266 C 11.430156 19.346266 11.683219 19.368578 11.949219 19.392578 L 11.949219 18.322266 C 12.363219 18.354266 12.762828 18.385969 13.173828 18.417969 L 13.173828 20.140625 C 14.121828 20.274625 15.057906 20.407016 16.003906 20.541016 L 16.003906 18.734375 C 16.172906 18.746375 16.324609 18.758531 16.474609 18.769531 C 16.994609 18.806531 17.509578 18.799156 18.017578 18.660156 C 18.955578 18.405156 19.593609 17.838234 19.849609 16.865234 C 20.008609 16.267234 20.02875 15.658969 19.96875 15.042969 C 19.91875 14.536969 19.786203 14.054375 19.533203 13.609375 C 19.462203 13.484375 19.388047 13.406297 19.248047 13.404297 C 19.233047 13.404297 18.216797 13.373047 18.216797 13.373047 L 18.21875 12.548828 C 18.22075 12.465828 18.192141 12.426297 18.119141 12.404297 C 17.801141 12.308297 17.484062 12.205141 17.164062 12.119141 C 16.979063 12.069141 16.788703 12.045766 16.595703 12.009766 L 16.595703 11.742188 C 16.595703 11.432187 16.594719 11.433078 16.886719 11.330078 C 17.391719 11.152078 17.891313 10.963047 18.320312 10.623047 C 18.799312 10.242047 19.144656 9.7626406 19.347656 9.1816406 C 19.531656 8.6566406 19.546813 8.1105469 19.507812 7.5605469 C 19.477812 7.1385469 19.3825 6.7305156 19.1875 6.3535156 C 19.0345 6.0585156 18.815156 5.8214375 18.535156 5.6484375 C 17.941156 5.2814375 17.287469 5.1827031 16.605469 5.2207031 C 16.406469 5.2327031 16.206906 5.2467656 16.003906 5.2597656 C 15.999906 5.1907656 15.996141 5.1342187 15.994141 5.0742188 C 15.728141 5.1082187 15.472844 5.1408281 15.214844 5.1738281 L 15.214844 4.4746094 C 15.477844 4.4356094 15.735141 4.3974219 15.994141 4.3574219 L 15.994141 3.453125 z M 18.996094 3.7988281 C 18.731094 3.8538281 18.472844 3.9088906 18.214844 3.9628906 L 18.214844 4.7246094 C 18.482844 4.6736094 18.741094 4.6251719 18.996094 4.5761719 L 18.996094 3.7988281 z M 18.003906 4.0019531 C 17.728906 4.0539531 17.464984 4.1043438 17.208984 4.1523438 L 17.208984 4.8964844 C 17.479984 4.8504844 17.741906 4.8067187 18.003906 4.7617188 L 18.003906 4.0019531 z M 8.0800781 4.1347656 L 8.0800781 4.78125 L 8.8847656 4.78125 L 8.8847656 4.1347656 L 8.0800781 4.1347656 z M 16.994141 4.1875 C 16.723141 4.2325 16.462266 4.2773125 16.197266 4.3203125 L 16.197266 5.0507812 C 16.472266 5.0087813 16.733141 4.9686875 16.994141 4.9296875 L 16.994141 4.1894531 L 16.994141 4.1875 z M 7.0585938 4.9667969 L 7.0585938 5.6269531 L 7.8632812 5.6269531 L 7.8632812 4.9667969 L 7.0585938 4.9667969 z M 8.0859375 4.96875 L 8.0859375 5.6230469 L 8.890625 5.6230469 L 8.890625 4.96875 L 8.0859375 4.96875 z M 4.0058594 5.6738281 L 4.0058594 6.3535156 C 4.2768594 6.3685156 4.5415938 6.3824844 4.8085938 6.3964844 C 4.8095938 6.1634844 4.8085938 5.94575 4.8085938 5.71875 C 4.5375938 5.70375 4.2748594 5.6898281 4.0058594 5.6738281 z M 5.0214844 5.7519531 L 5.0214844 6.4179688 L 5.8164062 6.4179688 L 5.8164062 5.7519531 L 5.0214844 5.7519531 z M 6.0371094 5.7890625 L 6.0371094 6.4492188 L 6.84375 6.4492188 L 6.84375 5.7890625 L 6.0371094 5.7890625 z M 10.927734 6.5351562 L 10.927734 7.203125 C 10.661734 7.215125 10.401812 7.2262813 10.132812 7.2382812 L 10.132812 6.5742188 C 10.401813 6.5612188 10.660734 6.5481563 10.927734 6.5351562 z M 18.996094 6.5917969 L 18.996094 7.3769531 C 18.742094 7.4079531 18.488609 7.4406562 18.224609 7.4726562 L 18.224609 6.7050781 C 18.474609 6.6670781 18.727094 6.6317969 18.996094 6.5917969 z M 5.0195312 6.5976562 L 5.0195312 7.2578125 L 5.8183594 7.2578125 L 5.8183594 6.5976562 L 5.0195312 6.5976562 z M 9.1191406 6.6035156 L 9.9042969 6.6035156 L 9.9042969 7.2519531 L 9.1191406 7.2519531 L 9.1191406 6.6035156 z M 4.0019531 7.4042969 C 4.0019531 7.6012969 3.9999062 7.808625 4.0039062 8.015625 C 4.0039062 8.034625 4.0415 8.0664062 4.0625 8.0664062 C 4.3085 8.0704062 4.5536406 8.0683594 4.8066406 8.0683594 L 4.8066406 7.4042969 L 4.0019531 7.4042969 z M 6.0371094 7.46875 L 6.0371094 8.1289062 L 6.84375 8.1289062 L 6.84375 7.46875 L 6.0371094 7.46875 z M 14.087891 7.6308594 C 15.757891 7.5878594 15.712609 8.3166563 15.724609 8.8476562 C 15.746609 9.8216563 15.346844 10.698469 13.339844 10.855469 C 13.271844 10.860469 11.644094 10.929688 11.621094 10.929688 C 11.620094 9.8676875 11.621094 8.814 11.621094 7.75 C 11.688094 7.745 13.829891 7.6388594 14.087891 7.6308594 z M 4.0058594 8.2539062 L 4.0058594 8.9277344 L 4.8085938 8.9277344 L 4.8085938 8.2539062 L 4.0058594 8.2539062 z M 6.0390625 8.3066406 L 6.0390625 8.96875 L 6.8398438 8.96875 L 6.8398438 8.3066406 L 6.0390625 8.3066406 z M 7.0605469 8.3164062 L 7.0605469 8.9765625 L 7.8652344 8.9765625 L 7.8652344 8.3164062 L 7.0605469 8.3164062 z M 8.6875 8.3222656 L 9.4785156 8.3222656 L 9.4785156 8.96875 L 8.6875 8.96875 L 8.6875 8.3222656 z M 18.992188 8.5957031 L 18.992188 9.3828125 C 18.739187 9.3998125 18.484703 9.4175469 18.220703 9.4355469 L 18.220703 8.6699219 C 18.478703 8.6449219 18.730187 8.6207031 18.992188 8.5957031 z M 5.0253906 9.1289062 L 5.0253906 9.796875 L 5.8164062 9.796875 L 5.8164062 9.1289062 L 5.0253906 9.1289062 z M 7.0605469 9.15625 L 7.0605469 9.8125 L 7.8613281 9.8125 L 7.8613281 9.15625 L 7.0605469 9.15625 z M 9.8261719 9.1621094 L 10.615234 9.1621094 L 10.615234 9.8027344 L 9.8261719 9.8027344 L 9.8261719 9.1621094 z M 4.0078125 9.9570312 L 4.0078125 10.630859 L 4.8105469 10.630859 L 4.8105469 9.9570312 L 4.0078125 9.9570312 z M 5.0214844 9.9765625 L 5.0214844 10.638672 L 5.8203125 10.638672 L 5.8203125 9.9765625 L 5.0214844 9.9765625 z M 6.0351562 9.9882812 L 6.0351562 10.646484 L 6.8398438 10.646484 L 6.8398438 9.9882812 L 6.0351562 9.9882812 z M 6.0371094 10.828125 L 6.0371094 11.488281 L 6.84375 11.488281 L 6.84375 10.828125 L 6.0371094 10.828125 z M 7.0625 10.832031 L 7.0625 11.488281 L 7.8652344 11.488281 L 7.8652344 10.832031 L 7.0625 10.832031 z M 5.0234375 11.671875 L 5.0234375 12.335938 L 5.8183594 12.335938 L 5.8183594 11.671875 L 5.0234375 11.671875 z M 7.0605469 11.671875 L 7.0605469 12.326172 L 7.8652344 12.326172 L 7.8652344 11.671875 L 7.0605469 11.671875 z M 9.7304688 11.673828 L 10.515625 11.673828 L 10.515625 12.324219 L 9.7304688 12.324219 L 9.7304688 11.673828 z M 7.0625 12.511719 L 7.0625 13.167969 L 7.8671875 13.167969 L 7.8671875 12.511719 L 7.0625 12.511719 z M 6.0351562 12.513672 L 6.0351562 13.171875 L 6.8417969 13.171875 L 6.8417969 12.513672 L 6.0351562 12.513672 z M 11.619141 13.095703 C 11.669141 13.095703 13.100891 13.125672 13.337891 13.138672 C 15.849891 13.273672 15.909062 13.767594 16.164062 14.683594 C 16.238062 14.946594 16.189141 15.226188 16.119141 15.492188 C 16.070141 15.677188 15.934266 16.373094 14.322266 16.371094 C 13.927266 16.371094 11.676141 16.277344 11.619141 16.277344 L 11.619141 13.095703 z M 6.0351562 13.355469 L 6.0351562 14.007812 L 6.8457031 14.007812 L 6.8457031 13.355469 L 6.0351562 13.355469 z M 5.0214844 13.363281 L 5.0214844 14.021484 L 5.8222656 14.021484 L 5.8222656 13.363281 L 5.0214844 13.363281 z M 4.0078125 13.375 L 4.0078125 14.033203 L 4.8105469 14.033203 L 4.8105469 13.375 L 4.0078125 13.375 z M 7.0585938 14.185547 L 7.0585938 14.841797 L 7.8632812 14.841797 L 7.8632812 14.185547 L 7.0585938 14.185547 z M 8.9101562 14.193359 L 9.7050781 14.193359 L 9.7050781 14.835938 L 8.9101562 14.835938 L 8.9101562 14.193359 z M 5.0214844 14.210938 L 5.0214844 14.865234 L 5.8183594 14.865234 L 5.8183594 14.210938 L 5.0214844 14.210938 z M 4.0058594 14.224609 L 4.0058594 14.888672 L 4.8085938 14.888672 L 4.8085938 14.224609 L 4.0058594 14.224609 z M 7.0605469 15.025391 L 7.0605469 15.679688 L 7.8632812 15.679688 L 7.8632812 15.025391 L 7.0605469 15.025391 z M 6.0351562 15.035156 L 6.0351562 15.689453 L 6.8417969 15.689453 L 6.8417969 15.035156 L 6.0351562 15.035156 z M 8.9101562 15.035156 L 9.703125 15.035156 L 9.703125 15.677734 L 8.9101562 15.677734 L 8.9101562 15.035156 z M 5.0253906 15.048828 L 5.0253906 15.712891 L 5.8183594 15.712891 L 5.8183594 15.048828 L 5.0253906 15.048828 z M 18.224609 15.546875 C 18.477609 15.571875 18.733094 15.595094 18.996094 15.621094 L 18.996094 16.404297 C 18.738094 16.374297 18.484609 16.345453 18.224609 16.314453 L 18.224609 15.546875 z M 5.0214844 15.896484 L 5.0214844 16.554688 L 5.8183594 16.554688 L 5.8183594 15.896484 L 5.0214844 15.896484 z M 6.0390625 16.714844 L 6.0390625 17.367188 L 6.84375 17.367188 L 6.84375 16.714844 L 6.0390625 16.714844 z M 8.0976562 16.71875 L 8.8886719 16.71875 L 8.8886719 17.367188 L 8.0976562 17.367188 L 8.0976562 16.71875 z M 5.0214844 16.744141 L 5.0214844 17.404297 L 5.8183594 17.404297 L 5.8183594 16.744141 L 5.0214844 16.744141 z M 12.201172 16.783203 L 12.990234 16.783203 L 12.990234 17.464844 C 12.858234 17.458844 12.335172 17.433734 12.201172 17.427734 L 12.201172 16.783203 z M 14.234375 16.869141 C 14.434375 16.884141 14.628219 16.896156 14.824219 16.910156 C 14.890219 16.915156 14.955484 16.920781 15.021484 16.925781 L 15.021484 17.611328 C 14.826484 17.596328 14.301375 17.553828 14.234375 17.548828 L 14.234375 16.869141 z M 6.0351562 17.554688 L 6.0351562 18.208984 L 6.8398438 18.208984 L 6.8398438 17.554688 L 6.0351562 17.554688 z M 4.8105469 17.601562 C 4.5345469 17.617562 4.2718125 17.632484 4.0078125 17.646484 L 4.0078125 18.328125 C 4.2788125 18.311125 4.5415469 18.294344 4.8105469 18.277344 L 4.8105469 17.601562 z M 8.0800781 18.375 L 8.0800781 19.033203 L 8.8847656 19.033203 L 8.8847656 18.375 L 8.0800781 18.375 z M 7.0605469 18.376953 L 7.0605469 19.03125 L 7.8652344 19.03125 L 7.8652344 18.376953 L 7.0605469 18.376953 z M 10.132812 18.386719 L 10.931641 18.386719 L 10.931641 19.027344 L 10.132812 19.027344 L 10.132812 18.386719 z M 6.0351562 18.394531 L 6.0351562 19.048828 L 6.8417969 19.048828 L 6.8417969 18.394531 L 6.0351562 18.394531 z M 5.8183594 18.404297 C 5.5483594 18.416297 5.2844844 18.427453 5.0214844 18.439453 L 5.0214844 19.115234 C 5.2914844 19.102234 5.5553594 19.089172 5.8183594 19.076172 L 5.8183594 18.404297 z M 4.8085938 18.451172 C 4.5385937 18.467172 4.2748594 18.485906 4.0058594 18.503906 L 4.0058594 19.183594 C 4.2788594 19.164594 4.5415938 19.146906 4.8085938 19.128906 L 4.8085938 19.126953 L 4.8085938 18.451172 z M 12.152344 18.517578 L 12.152344 18.519531 L 12.152344 19.199219 C 12.428344 19.222219 12.695984 19.244578 12.958984 19.267578 C 12.966984 19.245578 12.970703 19.237469 12.970703 19.230469 C 12.971703 19.097469 12.972656 18.963078 12.972656 18.830078 C 12.973656 18.585078 12.972281 18.5855 12.738281 18.5625 C 12.715281 18.5605 12.692922 18.555688 12.669922 18.554688 C 12.498922 18.542687 12.327344 18.529578 12.152344 18.517578 z M 16.199219 18.949219 L 16.199219 19.677734 C 16.464219 19.721734 16.724141 19.764594 16.994141 19.808594 L 16.994141 19.068359 C 16.726141 19.028359 16.466219 18.989219 16.199219 18.949219 z M 17.199219 19.101562 C 17.199219 19.248562 17.197219 19.372047 17.199219 19.498047 C 17.200219 19.612047 17.167656 19.755125 17.222656 19.828125 C 17.271656 19.895125 17.420391 19.88625 17.525391 19.90625 C 17.682391 19.93725 17.839047 19.965141 17.998047 19.994141 L 17.998047 19.236328 C 17.733047 19.191328 17.475219 19.147562 17.199219 19.101562 z M 8.0839844 19.212891 L 8.0839844 19.869141 L 8.8847656 19.869141 L 8.8847656 19.212891 L 8.0839844 19.212891 z M 6.0390625 19.234375 L 6.0390625 19.892578 L 6.8457031 19.892578 L 6.8457031 19.234375 L 6.0390625 19.234375 z M 18.212891 19.275391 L 18.212891 20.035156 L 18.212891 20.037109 C 18.474891 20.091109 18.733047 20.144219 18.998047 20.199219 L 18.998047 19.421875 C 18.733047 19.372875 18.476891 19.324391 18.212891 19.275391 z M 12.15625 19.373047 L 12.15625 19.375 L 12.15625 20.056641 C 12.42625 20.082641 12.689844 20.109719 12.964844 20.136719 L 12.964844 19.445312 C 12.690844 19.421312 12.42425 19.397047 12.15625 19.373047 z M 16.199219 19.865234 L 16.199219 20.59375 C 16.465219 20.64275 16.726094 20.690234 16.996094 20.740234 L 16.996094 20 L 16.996094 19.998047 C 16.729094 19.953047 16.468219 19.909234 16.199219 19.865234 z M 8.0820312 20.050781 L 8.0820312 20.796875 L 8.8867188 20.796875 L 8.8867188 20.050781 L 8.0820312 20.050781 z M 9.1015625 20.074219 L 9.1015625 20.822266 L 9.90625 20.822266 L 9.90625 20.074219 L 9.1015625 20.074219 z M 10.111328 20.091797 C 10.111328 20.333797 10.109234 20.560109 10.115234 20.787109 C 10.115234 20.812109 10.164359 20.851469 10.193359 20.855469 C 10.312359 20.869469 10.430781 20.872906 10.550781 20.878906 C 10.675781 20.885906 10.800734 20.891484 10.927734 20.896484 L 10.927734 20.134766 C 10.650734 20.120766 10.387328 20.104797 10.111328 20.091797 z M 11.140625 20.148438 L 11.140625 20.914062 C 11.409625 20.937062 11.674172 20.959422 11.951172 20.982422 L 11.951172 20.476562 C 11.951172 20.218562 11.951266 20.218359 11.697266 20.193359 C 11.513266 20.175359 11.330625 20.162438 11.140625 20.148438 z M 13.173828 20.335938 L 13.173828 21.115234 C 13.443828 21.151234 13.707562 21.186656 13.976562 21.222656 L 13.976562 20.431641 C 13.707562 20.399641 13.443828 20.367937 13.173828 20.335938 z M 14.195312 20.462891 L 14.195312 21.255859 C 14.465312 21.297859 14.728094 21.340813 14.996094 21.382812 L 14.996094 20.576172 C 14.726094 20.537172 14.462313 20.500891 14.195312 20.462891 z M 16.195312 20.777344 C 16.194312 21.050344 16.191312 21.298875 16.195312 21.546875 C 16.196313 21.569875 16.222187 21.607328 16.242188 21.611328 C 16.491187 21.666328 16.741047 21.716578 16.998047 21.767578 L 16.998047 20.929688 C 16.733047 20.879687 16.472313 20.830344 16.195312 20.777344 z M 17.199219 20.974609 C 17.199219 21.244609 17.197172 21.494094 17.201172 21.746094 C 17.201172 21.759094 17.20875 21.778922 17.21875 21.794922 C 17.22775 21.809922 17.239 21.822219 17.25 21.824219 C 17.497 21.885219 17.746813 21.94 18.007812 22 C 18.007812 21.725 18.008906 21.458359 18.003906 21.193359 C 18.002906 21.181359 17.991563 21.167297 17.976562 21.154297 C 17.961562 21.141297 17.942734 21.129953 17.927734 21.126953 C 17.773734 21.088953 17.618891 21.057391 17.462891 21.025391 C 17.378891 21.007391 17.294219 20.992609 17.199219 20.974609 z"/>
</svg>
